<svg width="49" height="60" viewBox="0 0 49 60" fill="none" xmlns="http://www.w3.org/2000/svg">
<path d="M48.1185 6.71074C43.1044 2.99684 37.154 1.03453 30.9109 1.03453C25.2181 1.03453 19.5626 2.67316 15.3533 5.48484V1.03453C15.3533 0.463477 14.8898 0 14.3188 0C13.7477 0 13.2842 0.463477 13.2842 1.03453V7.54242C13.2842 7.94379 13.5159 8.30895 13.8791 8.47863C14.2421 8.64937 14.6715 8.59453 14.9798 8.33789C18.9253 5.06063 24.8809 3.10336 30.9109 3.10336C36.7071 3.10336 42.2312 4.92609 46.8874 8.3741C47.0726 8.51062 47.2877 8.57684 47.5019 8.57684C47.8185 8.57684 48.1309 8.43199 48.3336 8.15789C48.674 7.69863 48.5778 7.05105 48.1185 6.71074Z" fill="#EF2A82"/>
<path d="M47.8631 51.5224C47.5 51.3527 47.0717 51.4054 46.7623 51.6631C42.8169 54.9404 36.8613 56.8976 30.8313 56.8976C25.034 56.8976 19.5099 55.0749 14.8547 51.6269C14.3955 51.2866 13.7479 51.3828 13.4075 51.8421C13.0672 52.3013 13.1634 52.9489 13.6226 53.2893C18.6367 57.0031 24.5872 58.9655 30.8302 58.9655C36.5229 58.9655 42.1785 57.3269 46.3878 54.5152V58.9655C46.3878 59.5366 46.8513 60.0001 47.4223 60.0001C47.9934 60.0001 48.4569 59.5366 48.4569 58.9655V52.4576C48.4569 52.0562 48.2252 51.691 47.8631 51.5224Z" fill="#EF2A82"/>
<path d="M9.2085 45.8907C5.93123 41.9452 3.97396 35.9907 3.97396 29.9596C3.97396 24.1634 5.7967 18.6393 9.24365 13.9842C9.58396 13.5249 9.48775 12.8773 9.0285 12.5369C8.56924 12.1955 7.92166 12.2928 7.58123 12.7521C3.86744 17.7662 1.90514 23.7165 1.90514 29.9596C1.90514 35.6524 3.54377 41.308 6.35545 45.5172H1.90514C1.33408 45.5172 0.870605 45.9807 0.870605 46.5517C0.870605 47.1228 1.33408 47.5863 1.90514 47.5863H8.41303C8.81439 47.5863 9.1785 47.3546 9.34924 46.9914C9.51998 46.6283 9.46514 46.1989 9.2085 45.8907Z" fill="#EF2A82"/>
<path d="M30.8954 28.9655H24.6637C24.0927 28.9655 23.6292 29.4289 23.6292 30C23.6292 30.571 24.0927 31.0345 24.6637 31.0345H30.8954C31.4665 31.0345 31.93 30.571 31.93 30C31.93 29.4289 31.4665 28.9655 30.8954 28.9655Z" fill="#EF2A82"/>
<path d="M30.8706 43.4482C30.2995 43.4482 29.8361 43.9117 29.8361 44.4828V46.5517C29.8361 47.1228 30.2995 47.5863 30.8706 47.5863C31.4416 47.5863 31.9051 47.1228 31.9051 46.5517V44.4828C31.9051 43.9116 31.4416 43.4482 30.8706 43.4482Z" fill="#EF2A82"/>
<path d="M30.8706 12.4138C30.2995 12.4138 29.8361 12.8773 29.8361 13.4484V15.5173C29.8361 16.0884 30.2995 16.5518 30.8706 16.5518C31.4416 16.5518 31.9051 16.0884 31.9051 15.5173V13.4484C31.9051 12.8773 31.4416 12.4138 30.8706 12.4138Z" fill="#EF2A82"/>
<path d="M21.2571 39.6135C20.8537 39.2089 20.1988 39.2089 19.7944 39.6135L18.4351 40.9718C18.0317 41.3753 18.0317 42.0301 18.4351 42.4345C18.6368 42.6362 18.9017 42.7376 19.1665 42.7376C19.4314 42.7376 19.6962 42.6373 19.8979 42.4345L21.2571 41.0762C21.6606 40.6727 21.6606 40.0179 21.2571 39.6135Z" fill="#EF2A82"/>
<path d="M21.2571 18.9238L19.8978 17.5655C19.4944 17.161 18.8395 17.161 18.4351 17.5655C18.0306 17.97 18.0306 18.6247 18.4351 19.0282L19.7944 20.3865C19.9961 20.5882 20.2609 20.6896 20.5257 20.6896C20.7906 20.6896 21.0554 20.5882 21.2571 20.3865C21.6616 19.9821 21.6616 19.3273 21.2571 18.9238Z" fill="#EF2A82"/>
</svg>

