<svg width="76" height="16" viewBox="0 0 76 16" fill="none" xmlns="http://www.w3.org/2000/svg">
<path d="M5.83594 0.625V12H3.89062V0.625H5.83594ZM9.40625 0.625V2.1875H0.351562V0.625H9.40625ZM12.0469 5.15625V12H10.1641V3.54688H11.9609L12.0469 5.15625ZM14.6328 3.49219L14.6172 5.24219C14.5026 5.22135 14.3776 5.20573 14.2422 5.19531C14.112 5.1849 13.9818 5.17969 13.8516 5.17969C13.5286 5.17969 13.2448 5.22656 13 5.32031C12.7552 5.40885 12.5495 5.53906 12.3828 5.71094C12.2214 5.8776 12.0964 6.08073 12.0078 6.32031C11.9193 6.5599 11.8672 6.82812 11.8516 7.125L11.4219 7.15625C11.4219 6.625 11.474 6.13281 11.5781 5.67969C11.6823 5.22656 11.8385 4.82812 12.0469 4.48438C12.2604 4.14062 12.526 3.8724 12.8438 3.67969C13.1667 3.48698 13.5391 3.39062 13.9609 3.39062C14.0755 3.39062 14.1979 3.40104 14.3281 3.42188C14.4635 3.44271 14.5651 3.46615 14.6328 3.49219ZM20.8984 10.0078V3.54688H22.7891V12H21.0078L20.8984 10.0078ZM21.1641 8.25L21.7969 8.23438C21.7969 8.80208 21.7344 9.32552 21.6094 9.80469C21.4844 10.2786 21.2917 10.6927 21.0312 11.0469C20.7708 11.3958 20.4375 11.6693 20.0312 11.8672C19.625 12.0599 19.138 12.1562 18.5703 12.1562C18.1589 12.1562 17.7812 12.0964 17.4375 11.9766C17.0938 11.8568 16.7969 11.6719 16.5469 11.4219C16.3021 11.1719 16.112 10.8464 15.9766 10.4453C15.8411 10.0443 15.7734 9.5651 15.7734 9.00781V3.54688H17.6562V9.02344C17.6562 9.33073 17.6927 9.58854 17.7656 9.79688C17.8385 10 17.9375 10.1641 18.0625 10.2891C18.1875 10.4141 18.3333 10.5026 18.5 10.5547C18.6667 10.6068 18.8438 10.6328 19.0312 10.6328C19.5677 10.6328 19.9896 10.5286 20.2969 10.3203C20.6094 10.1068 20.8307 9.82031 20.9609 9.46094C21.0964 9.10156 21.1641 8.69792 21.1641 8.25ZM29.4609 9.71094C29.4609 9.52344 29.4141 9.35417 29.3203 9.20312C29.2266 9.04688 29.0469 8.90625 28.7812 8.78125C28.5208 8.65625 28.1354 8.54167 27.625 8.4375C27.1771 8.33854 26.7656 8.22135 26.3906 8.08594C26.0208 7.94531 25.7031 7.77604 25.4375 7.57812C25.1719 7.38021 24.9661 7.14583 24.8203 6.875C24.6745 6.60417 24.6016 6.29167 24.6016 5.9375C24.6016 5.59375 24.6771 5.26823 24.8281 4.96094C24.9792 4.65365 25.1953 4.38281 25.4766 4.14844C25.7578 3.91406 26.099 3.72917 26.5 3.59375C26.9062 3.45833 27.3594 3.39062 27.8594 3.39062C28.5677 3.39062 29.1745 3.51042 29.6797 3.75C30.1901 3.98438 30.5807 4.30469 30.8516 4.71094C31.1224 5.11198 31.2578 5.5651 31.2578 6.07031H29.375C29.375 5.84635 29.3177 5.63802 29.2031 5.44531C29.0938 5.2474 28.9271 5.08854 28.7031 4.96875C28.4792 4.84375 28.1979 4.78125 27.8594 4.78125C27.5365 4.78125 27.2682 4.83333 27.0547 4.9375C26.8464 5.03646 26.6901 5.16667 26.5859 5.32812C26.487 5.48958 26.4375 5.66667 26.4375 5.85938C26.4375 6 26.4635 6.1276 26.5156 6.24219C26.5729 6.35156 26.6667 6.45312 26.7969 6.54688C26.9271 6.63542 27.1042 6.71875 27.3281 6.79688C27.5573 6.875 27.8438 6.95052 28.1875 7.02344C28.8333 7.15885 29.388 7.33333 29.8516 7.54688C30.3203 7.75521 30.6797 8.02604 30.9297 8.35938C31.1797 8.6875 31.3047 9.10417 31.3047 9.60938C31.3047 9.98438 31.224 10.3281 31.0625 10.6406C30.9062 10.9479 30.6771 11.2161 30.375 11.4453C30.0729 11.6693 29.7109 11.8438 29.2891 11.9688C28.8724 12.0938 28.4036 12.1562 27.8828 12.1562C27.1172 12.1562 26.4688 12.0208 25.9375 11.75C25.4062 11.474 25.0026 11.1224 24.7266 10.6953C24.4557 10.263 24.3203 9.8151 24.3203 9.35156H26.1406C26.1615 9.70052 26.2578 9.97917 26.4297 10.1875C26.6068 10.3906 26.8255 10.5391 27.0859 10.6328C27.3516 10.7214 27.625 10.7656 27.9062 10.7656C28.2448 10.7656 28.5286 10.7214 28.7578 10.6328C28.987 10.5391 29.1615 10.4141 29.2812 10.2578C29.401 10.0964 29.4609 9.91406 29.4609 9.71094ZM36.8281 3.54688V4.92188H32.0625V3.54688H36.8281ZM33.4375 1.47656H35.3203V9.66406C35.3203 9.92448 35.3568 10.125 35.4297 10.2656C35.5078 10.401 35.6146 10.4922 35.75 10.5391C35.8854 10.5859 36.0443 10.6094 36.2266 10.6094C36.3568 10.6094 36.4818 10.6016 36.6016 10.5859C36.7214 10.5703 36.8177 10.5547 36.8906 10.5391L36.8984 11.9766C36.7422 12.0234 36.5599 12.0651 36.3516 12.1016C36.1484 12.138 35.9141 12.1562 35.6484 12.1562C35.2161 12.1562 34.8333 12.0807 34.5 11.9297C34.1667 11.7734 33.9062 11.5208 33.7188 11.1719C33.5312 10.8229 33.4375 10.3594 33.4375 9.78125V1.47656ZM42.0078 12.1562C41.3828 12.1562 40.8177 12.0547 40.3125 11.8516C39.8125 11.6432 39.3854 11.3542 39.0312 10.9844C38.6823 10.6146 38.4141 10.1797 38.2266 9.67969C38.0391 9.17969 37.9453 8.64062 37.9453 8.0625V7.75C37.9453 7.08854 38.0417 6.48958 38.2344 5.95312C38.4271 5.41667 38.6953 4.95833 39.0391 4.57812C39.3828 4.19271 39.7891 3.89844 40.2578 3.69531C40.7266 3.49219 41.2344 3.39062 41.7812 3.39062C42.3854 3.39062 42.9141 3.49219 43.3672 3.69531C43.8203 3.89844 44.1953 4.1849 44.4922 4.55469C44.7943 4.91927 45.0182 5.35417 45.1641 5.85938C45.3151 6.36458 45.3906 6.92188 45.3906 7.53125V8.33594H38.8594V6.98438H43.5312V6.83594C43.5208 6.4974 43.4531 6.17969 43.3281 5.88281C43.2083 5.58594 43.0234 5.34635 42.7734 5.16406C42.5234 4.98177 42.1901 4.89062 41.7734 4.89062C41.4609 4.89062 41.1823 4.95833 40.9375 5.09375C40.6979 5.22396 40.4974 5.41406 40.3359 5.66406C40.1745 5.91406 40.0495 6.21615 39.9609 6.57031C39.8776 6.91927 39.8359 7.3125 39.8359 7.75V8.0625C39.8359 8.43229 39.8854 8.77604 39.9844 9.09375C40.0885 9.40625 40.2396 9.67969 40.4375 9.91406C40.6354 10.1484 40.875 10.3333 41.1562 10.4688C41.4375 10.599 41.7578 10.6641 42.1172 10.6641C42.5703 10.6641 42.974 10.5729 43.3281 10.3906C43.6823 10.2083 43.9896 9.95052 44.25 9.61719L45.2422 10.5781C45.0599 10.8438 44.8229 11.099 44.5312 11.3438C44.2396 11.5833 43.8828 11.7786 43.4609 11.9297C43.0443 12.0807 42.5599 12.1562 42.0078 12.1562ZM52.0156 10.25V0H53.9062V12H52.1953L52.0156 10.25ZM46.5156 7.86719V7.70312C46.5156 7.0625 46.5911 6.47917 46.7422 5.95312C46.8932 5.42188 47.112 4.96615 47.3984 4.58594C47.6849 4.20052 48.0339 3.90625 48.4453 3.70312C48.8568 3.49479 49.3203 3.39062 49.8359 3.39062C50.3464 3.39062 50.7943 3.48958 51.1797 3.6875C51.5651 3.88542 51.8932 4.16927 52.1641 4.53906C52.4349 4.90365 52.651 5.34115 52.8125 5.85156C52.974 6.35677 53.0885 6.91927 53.1562 7.53906V8.0625C53.0885 8.66667 52.974 9.21875 52.8125 9.71875C52.651 10.2188 52.4349 10.651 52.1641 11.0156C51.8932 11.3802 51.5625 11.6615 51.1719 11.8594C50.7865 12.0573 50.3359 12.1562 49.8203 12.1562C49.3099 12.1562 48.849 12.0495 48.4375 11.8359C48.0312 11.6224 47.6849 11.3229 47.3984 10.9375C47.112 10.5521 46.8932 10.099 46.7422 9.57812C46.5911 9.05208 46.5156 8.48177 46.5156 7.86719ZM48.3984 7.70312V7.86719C48.3984 8.2526 48.4323 8.61198 48.5 8.94531C48.5729 9.27865 48.6849 9.57292 48.8359 9.82812C48.987 10.0781 49.1823 10.276 49.4219 10.4219C49.6667 10.5625 49.9583 10.6328 50.2969 10.6328C50.724 10.6328 51.0755 10.5391 51.3516 10.3516C51.6276 10.1641 51.8438 9.91146 52 9.59375C52.1615 9.27083 52.2708 8.91146 52.3281 8.51562V7.10156C52.2969 6.79427 52.2318 6.50781 52.1328 6.24219C52.0391 5.97656 51.9115 5.74479 51.75 5.54688C51.5885 5.34375 51.388 5.1875 51.1484 5.07812C50.9141 4.96354 50.6354 4.90625 50.3125 4.90625C49.9688 4.90625 49.6771 4.97917 49.4375 5.125C49.1979 5.27083 49 5.47135 48.8438 5.72656C48.6927 5.98177 48.5807 6.27865 48.5078 6.61719C48.4349 6.95573 48.3984 7.31771 48.3984 7.70312ZM59.8672 0H61.75V10.1953L61.5703 12H59.8672V0ZM67.2656 7.69531V7.85938C67.2656 8.48438 67.1953 9.0599 67.0547 9.58594C66.9193 10.1068 66.7109 10.5599 66.4297 10.9453C66.1536 11.3307 65.8099 11.6302 65.3984 11.8438C64.9922 12.0521 64.5208 12.1562 63.9844 12.1562C63.4583 12.1562 63 12.0573 62.6094 11.8594C62.2188 11.6615 61.8906 11.3802 61.625 11.0156C61.3646 10.651 61.1536 10.2161 60.9922 9.71094C60.8307 9.20573 60.7161 8.64844 60.6484 8.03906V7.51562C60.7161 6.90104 60.8307 6.34375 60.9922 5.84375C61.1536 5.33854 61.3646 4.90365 61.625 4.53906C61.8906 4.16927 62.2161 3.88542 62.6016 3.6875C62.9922 3.48958 63.4479 3.39062 63.9688 3.39062C64.5104 3.39062 64.987 3.49479 65.3984 3.70312C65.8151 3.91146 66.1615 4.20833 66.4375 4.59375C66.7135 4.97396 66.9193 5.42708 67.0547 5.95312C67.1953 6.47917 67.2656 7.0599 67.2656 7.69531ZM65.3828 7.85938V7.69531C65.3828 7.3151 65.3516 6.95833 65.2891 6.625C65.2266 6.28646 65.1224 5.98958 64.9766 5.73438C64.8359 5.47917 64.6432 5.27865 64.3984 5.13281C64.1589 4.98177 63.8594 4.90625 63.5 4.90625C63.1667 4.90625 62.8802 4.96354 62.6406 5.07812C62.401 5.19271 62.2005 5.34896 62.0391 5.54688C61.8776 5.74479 61.75 5.97396 61.6562 6.23438C61.5677 6.49479 61.5078 6.77604 61.4766 7.07812V8.49219C61.5234 8.88281 61.6224 9.24219 61.7734 9.57031C61.9297 9.89323 62.1484 10.1536 62.4297 10.3516C62.7109 10.5443 63.0729 10.6406 63.5156 10.6406C63.8646 10.6406 64.1589 10.5703 64.3984 10.4297C64.638 10.2891 64.8281 10.0938 64.9688 9.84375C65.1146 9.58854 65.2188 9.29167 65.2812 8.95312C65.349 8.61458 65.3828 8.25 65.3828 7.85938ZM71.2188 11.0781L73.5156 3.54688H75.5312L72.1406 13.2891C72.0625 13.4974 71.9609 13.724 71.8359 13.9688C71.7109 14.2135 71.5469 14.4453 71.3438 14.6641C71.1458 14.888 70.8984 15.0677 70.6016 15.2031C70.3047 15.3438 69.9453 15.4141 69.5234 15.4141C69.3568 15.4141 69.1953 15.3984 69.0391 15.3672C68.888 15.3411 68.7448 15.3125 68.6094 15.2812L68.6016 13.8438C68.6536 13.849 68.7161 13.8542 68.7891 13.8594C68.8672 13.8646 68.9297 13.8672 68.9766 13.8672C69.2891 13.8672 69.5495 13.8281 69.7578 13.75C69.9661 13.6771 70.1354 13.5573 70.2656 13.3906C70.401 13.224 70.5156 13 70.6094 12.7188L71.2188 11.0781ZM69.9219 3.54688L71.9297 9.875L72.2656 11.8594L70.9609 12.1953L67.8906 3.54688H69.9219Z" fill="#8989A2"/>
</svg>
